<svg xmlns="http://www.w3.org/2000/svg" viewBox="0 0 545.71 129.62"><defs><style>.cls-1,.cls-2{fill:#fff;}.cls-2{stroke:#000;stroke-width:0.16px;}.cls-2,.cls-3{stroke-miterlimit:10;}.cls-3{fill:none;stroke:#070606;}</style></defs><g id="Layer_2" data-name="Layer 2"><g id="Layer_1-2" data-name="Layer 1"><path class="cls-1" d="M96.45,98.8c0-6.58,5.2-13,15.38-13H141l-2.76,9.13H111.94c-3.15,0-4.7,2-4.7,3.92s1.6,3.88,4.7,3.88h14.83c10,0,15.21,6.47,15.21,13.06,0,6.41-4.92,12.94-15.21,12.94H96.45l2.77-9.13h27.44c3.1,0,4.7-1.82,4.7-3.81s-1.55-4-4.7-4H111.83C101.49,111.75,96.45,105.28,96.45,98.8Z"/><path class="cls-1" d="M172.37,85.75h44.87l-2.77,9.13h-16v33.8H188.19V94.88H172.37Z"/><path class="cls-1" d="M271.58,129.62c-13.72,0-25.12-7.25-25.12-22.41s11.4-22.4,25.12-22.4c14.17,0,25.84,6.8,25.84,22.4S285.75,129.62,271.58,129.62Zm.5-9.29c9.57,0,14.55-3.88,14.55-13.12s-5-13.11-14.55-13.11c-9.9,0-14.83,3.6-14.83,13.11S262.18,120.33,272.08,120.33Z"/><path class="cls-1" d="M340.42,98.42V106h18.31c3.1,0,4.7-2.82,4.7-5.65s-1.55-5.47-4.7-5.47H330.18L333,85.75h25.89c10.07,0,15.38,7.63,15.38,15.1a13.66,13.66,0,0,1-9.4,13.39l10.68,14.44H363.43l-9.35-13.55H340.42v13.55H330.18v-27.5Z"/><path class="cls-1" d="M417.94,119.55h31.32l-2.77,9.13H407.71V85.75h41.55l-2.77,9.13H417.94v7.8h26.62v9.13H417.94Z"/><path class="cls-1" d="M362.26,3.2V49.92H404l-3.82,12.61H348.11V3.2Z"/><path class="cls-1" d="M435.77,42.5h16.59L440.74,17.88,420.09,62.53h-14.9l28.21-57,14.14-3.83,29.21,60.86H461.84l-3.75-8H430.57Z"/><path class="cls-1" d="M496.7,20.71V26.6h26.07c4.29,0,6.5-2.75,6.5-5.51s-2.14-5.27-6.5-5.27H482.56L486.38,3.2h36.55c14,0,21.25,8.64,21.25,17.13,0,4.51-2.45,9.1-7.34,12.23,5.89,3.29,8.87,8.33,8.87,13.38,0,8.33-7,16.59-21.26,16.59H482.56v-38Zm0,29.21h27.6c4.28,0,6.5-2.76,6.5-5.51s-2.14-5.27-6.5-5.27H496.7Z"/><path class="cls-2" d="M181.54,9.54l.25.09a3.11,3.11,0,0,1,2.48,3.08c0,5,0,10,0,15,0,8.32,0,16.65,0,25a3.37,3.37,0,0,1-3.51,3.49c-5.27-.05-10.54,0-15.81,0a3.19,3.19,0,0,1-3.25-2.57,3.44,3.44,0,0,1,0-.72v-40a3.13,3.13,0,0,1,2.57-3.23.77.77,0,0,0,.16-.07Zm1.76,23.32v-20a2.18,2.18,0,0,0-2.3-2.33c-.59,0-1.18,0-1.77,0a.46.46,0,0,0-.53.37,1.7,1.7,0,0,1-1.78,1.41q-3.93,0-7.88,0A1.68,1.68,0,0,1,167.29,11a.48.48,0,0,0-.55-.41c-.58,0-1.15,0-1.73,0a2.18,2.18,0,0,0-2.33,2.34q0,19.9,0,39.82a2.23,2.23,0,0,0,2.51,2.49H180.8a2.24,2.24,0,0,0,2.5-2.46Z"/><path class="cls-1" d="M14.09,20.87V31.3h27.5c4.26,0,6.47-3.88,6.47-7.77S45.93,16,41.59,16H0L3.81,3.42H41c14.32,0,21.93,10.52,21.93,20.8,0,9.9-7,19.65-21.93,19.65H14.09V62.53H0V24.67Z"/><path class="cls-1" d="M83.26,1.9V28.25h30.92V3.42h14.09V62.53H114.18V40.82H83.26V62.53H69.17V5.71Z"/><path class="cls-1" d="M273.94,3.42V62.53H259.85l-30.93-39v39H214.83V5.71L228.92,1.9l30.93,39V3.42Z"/><path class="cls-1" d="M297.24,50h43.11l-3.81,12.57H283.15V3.42h57.2L336.54,16h-39.3V26.73h36.63V39.3H297.24Z"/><path class="cls-1" d="M173,0A32.22,32.22,0,1,0,205.2,32.22,32.22,32.22,0,0,0,173,0Zm0,61.49a29.28,29.28,0,1,1,29.27-29.27A29.27,29.27,0,0,1,173,61.49Z"/><circle class="cls-3" cx="172.99" cy="32.22" r="29.27"/></g></g></svg>