<?xml version="1.0" encoding="utf-8"?>
<!-- Generator: Adobe Illustrator 28.4.1, SVG Export Plug-In . SVG Version: 6.00 Build 0)  -->
<svg version="1.1" xmlns="http://www.w3.org/2000/svg" xmlns:xlink="http://www.w3.org/1999/xlink" x="0px" y="0px"
	 viewBox="0 0 184 139" style="enable-background:new 0 0 184 139;" xml:space="preserve">
<style type="text/css">
	.st0{fill:none;stroke:#000000;stroke-width:2;stroke-linecap:round;stroke-linejoin:round;stroke-miterlimit:10;}
	.st1{fill:none;stroke:#000000;stroke-width:2;stroke-linecap:round;stroke-linejoin:round;}
</style>
<g id="Layer_1">
	<g>
		<path class="st0" d="M-156.5-127.2c0.1-3.3,2.1-5,4.7-5h19.5c2.6,0,4.5,2.4,4.9,5.7c0.4,3.3,0,42.9,0,42.9c0,3.2-2.6,5.2-5.3,5.5
			c-2.8,0.3-15,0.2-19.1,0c-2.8-0.2-4.7-3.4-4.7-6.2C-156.9-101.4-156.6-124-156.5-127.2z"/>
		<path class="st1" d="M-149.6-109.6c0.1-0.8,0.8-1.3,1.6-1.3h12.3c0.8,0,1.4,0.5,1.5,1.2c0.1,0.7,0.2,1.9,0.2,3.6
			c0,1.7-0.1,2.8-0.2,3.6c-0.1,0.8-0.8,1.2-1.6,1.2H-148c-0.8,0-1.6-0.6-1.7-1.4c-0.1-0.7-0.1-1.8-0.2-3.4
			C-149.8-107.8-149.7-108.9-149.6-109.6z"/>
		<path class="st1" d="M-133.4-107h0.1c0.7,0,1.3,0.4,1.3,1.1c0,0.1,0,0.2,0,0.3c0,0.1,0,0.2,0,0.3c0,0.7-0.6,1.2-1.3,1.2h-0.1"/>
		<path class="st1" d="M-133.8-107h0.1c0.7,0,1.3,0.4,1.3,1.1c0,0.1,0,0.2,0,0.3c0,0.1,0,0.2,0,0.3c0,0.7-0.6,1.2-1.3,1.2h-0.1"/>
		<path class="st1" d="M-147.7-108.7h1c0,0,0,0.5,0,2.6s0,2.6,0,2.6h-1c0,0,0-0.5,0-2.6C-147.7-108.1-147.7-108.7-147.7-108.7z"/>
		<path class="st1" d="M-146.8-108.7h1c0,0,0,0.5,0,2.6s0,2.6,0,2.6h-1c0,0,0-0.5,0-2.6S-146.8-108.7-146.8-108.7z"/>
		<path class="st0" d="M-126.6-120.5c0.1,1.7,0.1,2.5,0,3.9"/>
		<path class="st0" d="M-126.5-112.9c0.1,1.6,0,2.4-0.1,3.9"/>
		<path class="st0" d="M-157.1-110.9c-0.1-2.3,0-3.5,0.1-5.7"/>
		<path class="st0" d="M-145.5-129.1h7.1"/>
		<path class="st0" d="M-145.7-80.2c3,0.2,4.6,0.2,7.5,0.2"/>
	</g>
	<g>
		<path class="st0" d="M101.8-172.6c0.3-8.3,5.3-12.6,11.8-12.6h49.2c6.5,0,11.5,6.1,12.5,14.5c1,8.4,0,108.3,0,108.3
			c0,8.1-6.5,13.1-13.5,13.8c-7,0.8-38,0.6-48.1,0c-7.1-0.4-11.8-8.7-11.8-15.7C100.8-107.3,101.5-164.3,101.8-172.6z"/>
		<path class="st0" d="M177.1-155.6c0.3,4.2,0.3,6.3,0,9.9"/>
		<path class="st0" d="M177.4-136.3c0.2,4,0.1,6.1-0.2,9.9"/>
		<path class="st0" d="M100.3-131.3c-0.2-5.8-0.1-8.9,0.2-14.4"/>
		<path class="st0" d="M129.5-177.3h18"/>
		<path class="st0" d="M129-53.8c7.5,0.5,11.6,0.5,19,0.4"/>
		<path class="st1" d="M167.7-183.3L149-139.9c-0.2,0.6-0.3,1.2-0.1,1.8l6.2,23c0.2,0.7,0.6,1.3,1.2,1.7l18,11.3"/>
		<path class="st1" d="M155.7-114.8l19.1,1.6"/>
		<path class="st1" d="M102.3-121.4l14.7-5.8 M148.5-139.2l-31.5,12 M169.4-54.6L117-127.2"/>
		<path class="st1" d="M128.1-111.4l-25.3,35.3"/>
		<path class="st1" d="M125.5-117.3l24.2-15.3"/>
	</g>
	<g>
		<path class="st0" d="M-112.8-127.7c0.1-3.3,2.1-5,4.7-5h19.5c2.6,0,4.5,2.4,4.9,5.7c0.4,3.3,0,42.9,0,42.9c0,3.2-2.6,5.2-5.3,5.5
			c-2.8,0.3-15,0.2-19.1,0c-2.8-0.2-4.7-3.4-4.7-6.2C-113.2-101.8-113-124.4-112.8-127.7z"/>
		<path class="st0" d="M-83-121c0.1,1.7,0.1,2.5,0,3.9"/>
		<path class="st0" d="M-82.9-113.3c0.1,1.6,0,2.4-0.1,3.9"/>
		<path class="st0" d="M-113.4-111.3c-0.1-2.3,0-3.5,0.1-5.7"/>
		<path class="st0" d="M-101.9-129.5h7.1"/>
		<path class="st0" d="M-102.1-80.6c3,0.2,4.6,0.2,7.5,0.2"/>
		<path class="st1" d="M-93.8-102.5h2c0.4,0,0.7-0.3,0.7-0.7v-1.3h1.3c0.4,0,0.7-0.3,0.7-0.7v-2c0-0.4-0.3-0.7-0.7-0.7h-1.3v-1.3
			c0-0.4-0.3-0.7-0.7-0.7h-12c-0.4,0-0.7,0.3-0.7,0.7v6c0,0.4,0.3,0.7,0.7,0.7h2"/>
		<path class="st1" d="M-99.8-104.5h4c0.4,0,0.7,0.3,0.7,0.7v2c0,1.1-0.9,2-2,2h-1.3c-1.1,0-2-0.9-2-2v-2
			C-100.5-104.2-100.2-104.5-99.8-104.5z"/>
		<path class="st1" d="M-99.2-104.5v-2.7"/>
		<path class="st1" d="M-96.5-104.5v-2.7"/>
		<path class="st1" d="M-97.8-99.9v2.7"/>
	</g>
	<g>
		<path class="st0" d="M-72.7-128.3c0.1-3.3,2.1-5,4.7-5h19.5c2.6,0,4.5,2.4,4.9,5.7c0.4,3.3,0,42.9,0,42.9c0,3.2-2.6,5.2-5.3,5.5
			c-2.8,0.3-15,0.2-19.1,0c-2.8-0.2-4.7-3.4-4.7-6.2C-73.1-102.4-72.9-125-72.7-128.3z"/>
		<path class="st0" d="M-42.9-121.6c0.1,1.7,0.1,2.5,0,3.9"/>
		<path class="st0" d="M-42.8-113.9c0.1,1.6,0,2.4-0.1,3.9"/>
		<path class="st0" d="M-73.3-111.9c-0.1-2.3,0-3.5,0.1-5.7"/>
		<path class="st0" d="M-61.8-130.1h7.1"/>
		<path class="st0" d="M-62-81.2c3,0.2,4.6,0.2,7.5,0.2"/>
		<path class="st0" d="M-43.5-105.4c-1.8-1.4-2.6-0.7-3.8,1.3l-0.1,0.2c-1.2,2-3.3,2.4-5.1,1.1l-0.3-0.3c-1.8-1.4-3.9-0.9-5.1,1.1
			l-0.1,0.2c-1.2,2-3.3,2.4-5.1,1.1l-0.4-0.3c-1.7-1.3-3.9-0.9-5,1c-0.8,1.4-2.1,2-3.4,1.8"/>
		<path class="st0" d="M-63.5-87.3l-0.4-2.1l-0.4,2.1c-0.1,0.3,0.1,0.5,0.4,0.5C-63.6-86.9-63.4-87.1-63.5-87.3z"/>
		<path class="st0" d="M-52.6-92.8c0.1-0.2,0-0.4-0.1-0.6L-53-94l-0.3,0.6c-0.1,0.2-0.2,0.5-0.1,0.6c0.1,0.1,0.2,0.2,0.3,0.2
			C-52.8-92.6-52.7-92.7-52.6-92.8z"/>
		<path class="st0" d="M-64.6-95.6c0.1-0.2,0-0.4-0.1-0.6l-0.3-0.6l-0.3,0.6c-0.1,0.2-0.2,0.5-0.1,0.6c0.1,0.1,0.2,0.2,0.3,0.2
			C-64.8-95.4-64.7-95.5-64.6-95.6z"/>
		<path class="st0" d="M-32.2-99.7c-0.8-0.9-3.1-1.3-4.5-1.5c1.1,1.1,1.2,2.2,1.7,2.8c0.8,1.3,2.2,2,3.2,1.1
			C-31.3-97.7-31.1-98.6-32.2-99.7z"/>
		<path class="st0" d="M-80.9-99.7c0.8-0.9,3.1-1.3,4.5-1.5c-1.1,1.1-1.2,2.2-1.7,2.8c-0.8,1.3-2.2,2-3.2,1.1
			C-81.8-97.7-81.9-98.6-80.9-99.7z"/>
		<path class="st0" d="M-34.7-92.5c-0.2-0.5-1.1-1.1-1.6-1.5c0.2,0.6,0.1,1.1,0.2,1.4c0.1,0.7,0.6,1.2,1.1,1.1
			C-34.7-91.6-34.4-91.9-34.7-92.5z"/>
		<path class="st0" d="M-78-89.9c0.3-0.5,1.4-1.1,2.2-1.5c-0.3,0.6-0.2,1.1-0.2,1.4c-0.1,0.7-0.8,1.2-1.5,1.1
			C-78-89-78.3-89.3-78-89.9z"/>
	</g>
	<g>
		<path class="st0" d="M-152.8-66c0.1-3.3,2.1-5,4.7-5h19.5c2.6,0,4.5,2.4,4.9,5.7c0.4,3.3,0,42.9,0,42.9c0,3.2-2.6,5.2-5.3,5.5
			c-2.8,0.3-15,0.2-19.1,0c-2.8-0.2-4.7-3.4-4.7-6.2C-153.2-40.2-153-62.7-152.8-66z"/>
		<path class="st0" d="M-123-59.3c0.1,1.7,0.1,2.5,0,3.9"/>
		<path class="st0" d="M-122.9-51.7c0.1,1.6,0,2.4-0.1,3.9"/>
		<path class="st0" d="M-153.5-49.7c-0.1-2.3,0-3.5,0.1-5.7"/>
		<path class="st0" d="M-147.4-68.1h7.5c1.7,0,3,1.3,3,3v9.4c0,1.7-1.3,3-3,3h-7.5c-1.7,0-3-1.3-3-3V-65
			C-150.4-66.7-149-68.1-147.4-68.1z"/>
		<ellipse class="st0" cx="-145.7" cy="-63.1" rx="2.6" ry="2.8"/>
		<ellipse class="st0" cx="-142.9" cy="-57" rx="1.7" ry="1.7"/>
		<path class="st0" d="M-139-61.3c0,0.6-0.5,1-1,1c-0.6,0-1-0.5-1-1s0.5-1,1-1c0.4,0,0.8,0.1,1,0.9"/>
	</g>
	<g>
		<g>
			<path class="st0" d="M50.6,15C51,6.8,55.9,2.4,62.4,2.4h49c6.5,0,11.4,6,12.4,14.4c1,8.4,0,107.8,0,107.8c0,8.1-6.5,13-13.4,13.8
				c-7,0.8-37.8,0.6-47.9,0c-7.1-0.4-11.8-8.7-11.8-15.6C49.6,80,50.3,23.3,50.6,15z"/>
			<path class="st0" d="M125.7,31.9c0.3,4.2,0.3,6.3,0,9.8"/>
			<path class="st0" d="M125.9,51.1c0.2,3.9,0.1,6.1-0.2,9.9"/>
			<path class="st0" d="M49.1,56.1c-0.2-5.7-0.1-8.8,0.1-14.4"/>
			<path class="st0" d="M64.4,9.9h19c4.2,0,7.6,3.4,7.6,7.6V41c0,4.2-3.4,7.6-7.6,7.6h-19c-4.2,0-7.6-3.4-7.6-7.6V17.5
				C56.9,13.3,60.3,9.9,64.4,9.9z"/>
			<ellipse class="st0" cx="68.5" cy="22.4" rx="6.6" ry="7"/>
			<ellipse class="st0" cx="75.7" cy="37.6" rx="4.2" ry="4.3"/>
			<path class="st0" d="M85.4,26.8c0,1.4-1.1,2.6-2.6,2.6c-1.4,0-2.6-1.2-2.6-2.6s1.1-2.6,2.6-2.6c1.1,0,2.1,0.4,2.6,2.2"/>
		</g>
		<path class="st1" d="M108,75.4l15.2,14.1"/>
		<path class="st1" d="M107.5,74.3l15.8,1.9"/>
		<path class="st1" d="M118.6,132.7L68.7,65.3H52h16.7l30.5-18.4l0.1-0.6l23.9-16.9"/>
		<path class="st1" d="M79.2,81.9l-28.5,42.3"/>
	</g>
</g>
<g id="Layer_2">
</g>
<g id="Layer_3">
</g>
<g id="Layer_4">
</g>
</svg>
