<?xml version="1.0" encoding="utf-8"?>
<!-- Generator: Adobe Illustrator 28.4.1, SVG Export Plug-In . SVG Version: 6.00 Build 0)  -->
<svg version="1.1" xmlns="http://www.w3.org/2000/svg" xmlns:xlink="http://www.w3.org/1999/xlink" x="0px" y="0px"
	 viewBox="0 0 184 139" style="enable-background:new 0 0 184 139;" xml:space="preserve">
<style type="text/css">
	.st0{fill:none;stroke:#000000;stroke-width:2;stroke-linecap:round;stroke-linejoin:round;stroke-miterlimit:10;}
	.st1{fill:none;stroke:#000000;stroke-width:2;stroke-linecap:round;stroke-linejoin:round;}
	.st2{fill:none;stroke:#000000;stroke-width:4;stroke-linecap:round;stroke-linejoin:round;stroke-miterlimit:10;}
</style>
<g id="Layer_1">
	<g>
		<path class="st0" d="M218.2,157.1c0.3-8.1,5.2-12.4,11.6-12.4h48.3c6.4,0,11.3,6,12.3,14.2c1,8.3,0,106.4,0,106.4
			c0,8-6.4,12.8-13.3,13.6c-6.9,0.8-37.3,0.6-47.3,0c-7-0.4-11.6-8.5-11.6-15.4C217.2,221.2,217.8,165.2,218.2,157.1z"/>
		<path class="st1" d="M235.1,200.8c0.2-1.9,1.9-3.1,3.9-3.1h30.6c1.9,0,3.6,1.2,3.8,3.1c0.3,1.8,0.5,4.6,0.5,8.8
			c0,4.2-0.2,7-0.5,8.9c-0.3,1.9-1.9,3.1-3.9,3.1h-30.2c-2.1,0-3.9-1.4-4.1-3.5c-0.2-1.8-0.4-4.6-0.4-8.5
			C234.7,205.4,234.8,202.6,235.1,200.8z"/>
		<path class="st1" d="M275.5,207.4h0.3c1.8,0,3.3,1.1,3.3,2.8c0,0.2,0,0.5,0,0.8c0,0.3,0,0.5,0,0.7c-0.1,1.8-1.5,2.9-3.3,2.9h-0.2"
			/>
		<path class="st1" d="M274.4,207.4h0.3c1.8,0,3.3,1.1,3.3,2.8c0,0.2,0,0.5,0,0.8c0,0.3,0,0.5,0,0.7c-0.1,1.8-1.5,2.9-3.3,2.9h-0.2"
			/>
		<path class="st1" d="M239.9,203.2h2.6c0,0,0,1.3,0,6.3c0,5.1,0,6.4,0,6.4h-2.6c0,0,0-1.3,0-6.4
			C239.9,204.5,239.9,203.2,239.9,203.2z"/>
		<path class="st1" d="M242.2,203.2h2.6c0,0,0,1.3,0,6.3c0,5.1,0,6.4,0,6.4h-2.6c0,0,0-1.3,0-6.4
			C242.2,204.5,242.2,203.2,242.2,203.2z"/>
		<path class="st0" d="M292.2,173.7c0.3,4.1,0.3,6.2,0,9.7"/>
		<path class="st0" d="M292.5,192.7c0.2,3.9,0.1,6-0.1,9.8"/>
		<path class="st0" d="M216.6,197.6c-0.2-5.7-0.1-8.7,0.1-14.2"/>
		<path class="st2" d="M245.4,152.4h17.7"/>
		<path class="st0" d="M244.9,273.9c7.4,0.5,11.4,0.5,18.6,0.4"/>
	</g>
	<g>
		<path class="st0" d="M101.8-172.6c0.3-8.3,5.3-12.6,11.8-12.6h49.2c6.5,0,11.5,6.1,12.5,14.5c1,8.4,0,108.3,0,108.3
			c0,8.1-6.5,13.1-13.5,13.8c-7,0.8-38,0.6-48.1,0c-7.1-0.4-11.8-8.7-11.8-15.7C100.8-107.3,101.5-164.3,101.8-172.6z"/>
		<path class="st0" d="M177.1-155.6c0.3,4.2,0.3,6.3,0,9.9"/>
		<path class="st0" d="M177.4-136.3c0.2,4,0.1,6.1-0.2,9.9"/>
		<path class="st0" d="M100.3-131.3c-0.2-5.8-0.1-8.9,0.2-14.4"/>
		<path class="st2" d="M129.5-177.3h18"/>
		<path class="st0" d="M129-53.8c7.5,0.5,11.6,0.5,19,0.4"/>
		<path class="st1" d="M167.7-183.3L149-139.9c-0.2,0.6-0.3,1.2-0.1,1.8l6.2,23c0.2,0.7,0.6,1.3,1.2,1.7l18,11.3"/>
		<path class="st1" d="M155.7-114.8l19.1,1.6"/>
		<path class="st1" d="M102.3-121.4l14.7-5.8 M148.5-139.2l-31.5,12 M169.4-54.6L117-127.2"/>
		<path class="st1" d="M128.1-111.4l-25.3,35.3"/>
		<path class="st1" d="M125.5-117.3l24.2-15.3"/>
	</g>
	<g>
		<path class="st0" d="M214.4-4.6c0.3-8.2,5.3-12.6,11.8-12.6h49c6.5,0,11.4,6,12.4,14.4c1,8.4,0,107.8,0,107.8
			c0,8.1-6.5,13-13.4,13.8c-7,0.8-37.8,0.6-47.9,0c-7.1-0.4-11.8-8.7-11.8-15.6C213.4,60.4,214,3.7,214.4-4.6z"/>
		<path class="st0" d="M289.4,12.3c0.3,4.2,0.3,6.3,0,9.8"/>
		<path class="st0" d="M289.6,31.5c0.2,3.9,0.1,6.1-0.2,9.9"/>
		<path class="st0" d="M212.8,36.5c-0.2-5.7-0.1-8.8,0.1-14.4"/>
		<path class="st2" d="M241.9-9.3h17.9"/>
		<path class="st0" d="M241.5,113.8c7.4,0.5,11.6,0.5,18.9,0.4"/>
		<path class="st1" d="M262.1,58.6h5c0.9,0,1.7-0.8,1.7-1.7v-3.4h3.4c0.9,0,1.7-0.8,1.7-1.7v-5c0-0.9-0.8-1.7-1.7-1.7h-3.4v-3.4
			c0-0.9-0.8-1.7-1.7-1.7H237c-0.9,0-1.7,0.8-1.7,1.7v15.1c0,0.9,0.8,1.7,1.7,1.7h5"/>
		<path class="st1" d="M247,53.5h10.1c0.9,0,1.7,0.8,1.7,1.7v5c0,2.8-2.3,5-5,5h-3.4c-2.8,0-5-2.3-5-5v-5
			C245.3,54.3,246.1,53.5,247,53.5z"/>
		<path class="st1" d="M248.7,53.5v-6.7"/>
		<path class="st1" d="M255.4,53.5v-6.7"/>
		<path class="st1" d="M252,65.3V72"/>
	</g>
	<g>
		<path class="st0" d="M12.5-174.3c0.3-8.2,5.3-12.6,11.8-12.6h49c6.5,0,11.4,6,12.4,14.4c1,8.4,0,107.8,0,107.8
			c0,8.1-6.5,13-13.4,13.8c-7,0.8-37.8,0.6-47.9,0c-7.1-0.4-11.8-8.7-11.8-15.6C11.5-109.3,12.2-166,12.5-174.3z"/>
		<path class="st0" d="M87.5-157.4c0.3,4.2,0.3,6.3,0,9.8"/>
		<path class="st0" d="M87.8-138.2c0.2,3.9,0.1,6.1-0.2,9.9"/>
		<path class="st0" d="M11-133.2c-0.2-5.7-0.1-8.8,0.1-14.4"/>
		<path class="st2" d="M40.1-179H58"/>
		<path class="st0" d="M39.6-56c7.4,0.5,11.6,0.5,18.9,0.4"/>
		<path class="st0" d="M86-116.8c-4.4-3.4-6.5-1.7-9.5,3.2l-0.3,0.6c-3,4.9-8.4,6-12.8,2.6l-0.8-0.6c-4.4-3.4-9.8-2.3-12.8,2.6
			l-0.3,0.6c-3,4.9-8.4,6-12.8,2.6l-0.9-0.7c-4.4-3.4-9.7-2.3-12.6,2.6c-2.1,3.4-5.3,5-8.6,4.4"/>
		<path class="st0" d="M35.8-71.4l-1-5.2l-1,5.2c-0.1,0.6,0.4,1.2,1,1.2C35.4-70.2,35.9-70.8,35.8-71.4z"/>
		<path class="st0" d="M63.1-85c0.3-0.5,0.1-1.1-0.2-1.6l-0.7-1.5l-0.7,1.5c-0.2,0.5-0.5,1.1-0.2,1.6c0.2,0.3,0.5,0.4,0.8,0.4
			C62.6-84.6,62.9-84.8,63.1-85z"/>
		<path class="st0" d="M33-92.2c0.3-0.5,0.1-1.1-0.2-1.6l-0.7-1.5l-0.7,1.5c-0.2,0.5-0.5,1.1-0.2,1.6c0.2,0.3,0.5,0.4,0.8,0.4
			C32.5-91.8,32.8-91.9,33-92.2z"/>
		<path class="st0" d="M114.5-102.4c-2.1-2.2-7.8-3.2-11.4-3.8c2.7,2.7,3.1,5.4,4.2,7.1c2,3.3,5.7,5,8.1,2.8
			C116.7-97.6,117.1-99.7,114.5-102.4z"/>
		<path class="st0" d="M-8-102.4c2.1-2.2,7.8-3.2,11.4-3.8c-2.7,2.7-3.1,5.4-4.2,7.1c-2,3.3-5.7,5-8.1,2.8
			C-10.2-97.6-10.6-99.7-8-102.4z"/>
		<path class="st0" d="M108.2-84.3c-0.5-1.3-2.6-2.8-4-3.8c0.6,1.6,0.3,2.8,0.4,3.6c0.2,1.7,1.4,3.1,2.8,2.7
			C108.2-82,108.8-82.7,108.2-84.3z"/>
		<path class="st0" d="M-0.6-77.9C0-79.2,3-80.7,4.9-81.7C4-80.1,4.5-79,4.3-78.1C4-76.4,2.4-75,0.5-75.4
			C-0.7-75.6-1.4-76.3-0.6-77.9z"/>
	</g>
	<g>
		<path class="st0" d="M59.5,14.9C59.8,6.8,64.6,2.5,71,2.5h48c6.4,0,11.2,5.9,12.2,14.2c1,8.2,0,105.8,0,105.8
			c0,7.9-6.3,12.8-13.2,13.5c-6.8,0.8-37.1,0.6-47,0c-7-0.4-11.5-8.5-11.5-15.3C58.5,78.6,59.2,22.9,59.5,14.9z"/>
		<path class="st0" d="M133,31.4c0.3,4.1,0.3,6.2,0,9.7"/>
		<path class="st0" d="M133.3,50.3c0.2,3.9,0.1,6-0.1,9.7"/>
		<path class="st0" d="M57.9,55.1c-0.2-5.6-0.1-8.7,0.1-14.1"/>
		<path class="st0" d="M73,9.9h18.6c4.1,0,7.4,3.3,7.4,7.4v23.1c0,4.1-3.3,7.4-7.4,7.4H73c-4.1,0-7.4-3.3-7.4-7.4V17.3
			C65.6,13.2,68.9,9.9,73,9.9z"/>
		<ellipse class="st0" cx="77" cy="22.1" rx="6.5" ry="6.8"/>
		<ellipse class="st0" cx="84.1" cy="37.1" rx="4.1" ry="4.2"/>
		<path class="st0" d="M93.6,26.4c0,1.4-1.1,2.6-2.5,2.6c-1.4,0-2.5-1.1-2.5-2.6c0-1.4,1.1-2.6,2.5-2.6c1.1,0,2.1,0.4,2.5,2.1"/>
	</g>
	<g>
		<g>
			<path class="st0" d="M206.5-176.2c0.3-8.2,5.3-12.6,11.8-12.6h49c6.5,0,11.4,6,12.4,14.4c1,8.4,0,107.8,0,107.8
				c0,8.1-6.5,13-13.4,13.8c-7,0.8-37.8,0.6-47.9,0c-7.1-0.4-11.8-8.7-11.8-15.6C205.5-111.3,206.2-168,206.5-176.2z"/>
			<path class="st0" d="M281.5-159.4c0.3,4.2,0.3,6.3,0,9.8"/>
			<path class="st0" d="M281.8-140.1c0.2,3.9,0.1,6.1-0.2,9.9"/>
			<path class="st0" d="M204.9-135.2c-0.2-5.7-0.1-8.8,0.1-14.4"/>
			<path class="st0" d="M220.3-181.4h19c4.2,0,7.6,3.4,7.6,7.6v23.6c0,4.2-3.4,7.6-7.6,7.6h-19c-4.2,0-7.6-3.4-7.6-7.6v-23.6
				C212.7-178,216.1-181.4,220.3-181.4z"/>
			<ellipse class="st0" cx="224.3" cy="-168.9" rx="6.6" ry="7"/>
			<ellipse class="st0" cx="231.6" cy="-153.6" rx="4.2" ry="4.3"/>
			<path class="st0" d="M241.3-164.5c0,1.4-1.1,2.6-2.6,2.6c-1.4,0-2.6-1.2-2.6-2.6c0-1.4,1.1-2.6,2.6-2.6c1.1,0,2.1,0.4,2.6,2.2"/>
		</g>
		<path class="st1" d="M263.9-115.9l15.2,14.1"/>
		<path class="st1" d="M263.3-117l15.8,1.9"/>
		<path class="st1" d="M274.5-58.5l-49.9-67.4h-16.7h16.7l30.5-18.4l0.1-0.6l23.9-16.9"/>
		<path class="st1" d="M235.1-109.3L206.6-67"/>
	</g>
</g>
<g id="Layer_2">
</g>
<g id="Layer_3">
</g>
<g id="Layer_4">
</g>
</svg>
