<?xml version="1.0" encoding="utf-8"?>
<!-- Generator: Adobe Illustrator 28.4.1, SVG Export Plug-In . SVG Version: 6.00 Build 0)  -->
<svg version="1.1" xmlns="http://www.w3.org/2000/svg" xmlns:xlink="http://www.w3.org/1999/xlink" x="0px" y="0px"
	 viewBox="0 0 184 139" style="enable-background:new 0 0 184 139;" xml:space="preserve">
<style type="text/css">
	.st0{fill:none;stroke:#000000;stroke-width:2;stroke-linecap:round;stroke-linejoin:round;stroke-miterlimit:10;}
	.st1{fill:none;stroke:#000000;stroke-width:2;stroke-linecap:round;stroke-linejoin:round;}
	.st2{fill:none;stroke:#000000;stroke-width:4;stroke-linecap:round;stroke-linejoin:round;stroke-miterlimit:10;}
</style>
<g id="Layer_1">
	<g>
		<path class="st0" d="M218.2,157.1c0.3-8.1,5.2-12.4,11.6-12.4h48.3c6.4,0,11.3,6,12.3,14.2c1,8.3,0,106.4,0,106.4
			c0,8-6.4,12.8-13.3,13.6c-6.9,0.8-37.3,0.6-47.3,0c-7-0.4-11.6-8.5-11.6-15.4C217.2,221.2,217.8,165.2,218.2,157.1z"/>
		<path class="st1" d="M235.1,200.8c0.2-1.9,1.9-3.1,3.9-3.1h30.6c1.9,0,3.6,1.2,3.8,3.1c0.3,1.8,0.5,4.6,0.5,8.8
			c0,4.2-0.2,7-0.5,8.9c-0.3,1.9-1.9,3.1-3.9,3.1h-30.2c-2.1,0-3.9-1.4-4.1-3.5c-0.2-1.8-0.4-4.6-0.4-8.5
			C234.7,205.4,234.8,202.6,235.1,200.8z"/>
		<path class="st1" d="M275.5,207.4h0.3c1.8,0,3.3,1.1,3.3,2.8c0,0.2,0,0.5,0,0.8c0,0.3,0,0.5,0,0.7c-0.1,1.8-1.5,2.9-3.3,2.9h-0.2"
			/>
		<path class="st1" d="M274.4,207.4h0.3c1.8,0,3.3,1.1,3.3,2.8c0,0.2,0,0.5,0,0.8c0,0.3,0,0.5,0,0.7c-0.1,1.8-1.5,2.9-3.3,2.9h-0.2"
			/>
		<path class="st1" d="M239.9,203.2h2.6c0,0,0,1.3,0,6.3c0,5.1,0,6.4,0,6.4h-2.6c0,0,0-1.3,0-6.4
			C239.9,204.5,239.9,203.2,239.9,203.2z"/>
		<path class="st1" d="M242.2,203.2h2.6c0,0,0,1.3,0,6.3c0,5.1,0,6.4,0,6.4h-2.6c0,0,0-1.3,0-6.4
			C242.2,204.5,242.2,203.2,242.2,203.2z"/>
		<path class="st0" d="M292.2,173.7c0.3,4.1,0.3,6.2,0,9.7"/>
		<path class="st0" d="M292.5,192.7c0.2,3.9,0.1,6-0.1,9.8"/>
		<path class="st0" d="M216.6,197.6c-0.2-5.7-0.1-8.7,0.1-14.2"/>
		<path class="st2" d="M245.4,152.4h17.7"/>
		<path class="st0" d="M244.9,273.9c7.4,0.5,11.4,0.5,18.6,0.4"/>
	</g>
	<g>
		<path class="st0" d="M51.4,13.6c0.3-8.3,5.3-12.6,11.8-12.6h49.2c6.5,0,11.5,6.1,12.5,14.5c1,8.4,0,108.3,0,108.3
			c0,8.1-6.5,13.1-13.5,13.8c-7,0.8-38,0.6-48.1,0c-7.1-0.4-11.8-8.7-11.8-15.7C50.4,78.8,51.1,21.8,51.4,13.6z"/>
		<path class="st0" d="M126.7,30.5c0.3,4.2,0.3,6.3,0,9.9"/>
		<path class="st0" d="M127,49.8c0.2,4,0.1,6.1-0.2,9.9"/>
		<path class="st0" d="M49.8,54.8c-0.2-5.8-0.1-8.9,0.2-14.4"/>
		<path class="st2" d="M79.1,8.8h18"/>
		<path class="st0" d="M78.6,132.4c7.5,0.5,11.6,0.5,19,0.4"/>
		<path class="st1" d="M117.3,2.8L98.6,46.2c-0.2,0.6-0.3,1.2-0.1,1.8l6.2,23c0.2,0.7,0.6,1.3,1.2,1.7l18,11.3"/>
		<path class="st1" d="M105.3,71.3l19.1,1.6"/>
		<path class="st1" d="M51.8,64.8l14.7-5.8 M98.1,46.9l-31.5,12 M119,131.5L66.5,58.9"/>
		<path class="st1" d="M77.7,74.8l-25.3,35.3"/>
		<path class="st1" d="M75.1,68.9l24.2-15.3"/>
	</g>
	<g>
		<path class="st0" d="M13.4,165.8c0.3-8.2,5.3-12.6,11.8-12.6h49c6.5,0,11.4,6,12.4,14.4c1,8.4,0,107.8,0,107.8
			c0,8.1-6.5,13-13.4,13.8c-7,0.8-37.8,0.6-47.9,0c-7.1-0.4-11.8-8.7-11.8-15.6C12.4,230.7,13.1,174,13.4,165.8z"/>
		<path class="st0" d="M88.4,182.6c0.3,4.2,0.3,6.3,0,9.8"/>
		<path class="st0" d="M88.7,201.9c0.2,3.9,0.1,6.1-0.2,9.9"/>
		<path class="st0" d="M11.8,206.8c-0.2-5.7-0.1-8.8,0.1-14.4"/>
		<path class="st2" d="M41,161h17.9"/>
		<path class="st0" d="M40.5,284.1c7.4,0.5,11.6,0.5,18.9,0.4"/>
		<path class="st1" d="M61.1,228.9h5c0.9,0,1.7-0.8,1.7-1.7v-3.4h3.4c0.9,0,1.7-0.8,1.7-1.7v-5c0-0.9-0.8-1.7-1.7-1.7h-3.4v-3.4
			c0-0.9-0.8-1.7-1.7-1.7H36c-0.9,0-1.7,0.8-1.7,1.7v15.1c0,0.9,0.8,1.7,1.7,1.7h5"/>
		<path class="st1" d="M46.1,223.9h10.1c0.9,0,1.7,0.8,1.7,1.7v5c0,2.8-2.3,5-5,5h-3.4c-2.8,0-5-2.3-5-5v-5
			C44.4,224.6,45.1,223.9,46.1,223.9z"/>
		<path class="st1" d="M47.7,223.9v-6.7"/>
		<path class="st1" d="M54.4,223.9v-6.7"/>
		<path class="st1" d="M51.1,235.6v6.7"/>
	</g>
	<g>
		<path class="st0" d="M-85.1,174c0.3-8.2,5.3-12.6,11.8-12.6h49c6.5,0,11.4,6,12.4,14.4c1,8.4,0,107.8,0,107.8
			c0,8.1-6.5,13-13.4,13.8c-7,0.8-37.8,0.6-47.9,0c-7.1-0.4-11.8-8.7-11.8-15.6C-86.1,239-85.4,182.3-85.1,174z"/>
		<path class="st0" d="M-10.1,190.9c0.3,4.2,0.3,6.3,0,9.8"/>
		<path class="st0" d="M-9.8,210.2c0.2,3.9,0.1,6.1-0.2,9.9"/>
		<path class="st0" d="M-86.6,215.1c-0.2-5.7-0.1-8.8,0.1-14.4"/>
		<path class="st2" d="M-57.5,169.3h17.9"/>
		<path class="st0" d="M-58,292.4c7.4,0.5,11.6,0.5,18.9,0.4"/>
		<path class="st0" d="M-11.6,231.5c-4.4-3.4-6.5-1.7-9.5,3.2l-0.3,0.6c-3,4.9-8.4,6-12.8,2.6l-0.8-0.6c-4.4-3.4-9.8-2.3-12.8,2.6
			l-0.3,0.6c-3,4.9-8.4,6-12.8,2.6l-0.9-0.7c-4.4-3.4-9.7-2.3-12.6,2.6c-2.1,3.4-5.3,5-8.6,4.4"/>
		<path class="st0" d="M-61.9,276.9l-1-5.2l-1,5.2c-0.1,0.6,0.4,1.2,1,1.2C-62.2,278.1-61.7,277.5-61.9,276.9z"/>
		<path class="st0" d="M-34.5,263.3c0.3-0.5,0.1-1.1-0.2-1.6l-0.7-1.5l-0.7,1.5c-0.2,0.5-0.5,1.1-0.2,1.6c0.2,0.3,0.5,0.4,0.8,0.4
			C-35,263.7-34.7,263.6-34.5,263.3z"/>
		<path class="st0" d="M-64.6,256.1c0.3-0.5,0.1-1.1-0.2-1.6l-0.7-1.5l-0.7,1.5c-0.2,0.5-0.5,1.1-0.2,1.6c0.2,0.3,0.5,0.4,0.8,0.4
			C-65.1,256.6-64.8,256.4-64.6,256.1z"/>
		<path class="st0" d="M16.8,246c-2.1-2.2-7.8-3.2-11.4-3.8c2.7,2.7,3.1,5.4,4.2,7.1c2,3.3,5.7,5,8.1,2.8
			C19,250.7,19.5,248.7,16.8,246z"/>
		<path class="st0" d="M-105.6,246c2.1-2.2,7.8-3.2,11.4-3.8c-2.7,2.7-3.1,5.4-4.2,7.1c-2,3.3-5.7,5-8.1,2.8
			C-107.8,250.7-108.2,248.7-105.6,246z"/>
		<path class="st0" d="M10.6,264c-0.5-1.3-2.6-2.8-4-3.8c0.6,1.6,0.3,2.8,0.4,3.6c0.2,1.7,1.4,3.1,2.8,2.7
			C10.6,266.3,11.2,265.6,10.6,264z"/>
		<path class="st0" d="M-98.3,270.4c0.6-1.3,3.6-2.8,5.5-3.8c-0.8,1.6-0.4,2.8-0.6,3.6c-0.3,1.7-1.9,3.1-3.9,2.7
			C-98.3,272.7-99.1,272-98.3,270.4z"/>
	</g>
	<g>
		<path class="st0" d="M97.2,164.7c0.3-8.1,5.2-12.3,11.5-12.3h48c6.4,0,11.2,5.9,12.2,14.2c1,8.2,0,105.8,0,105.8
			c0,7.9-6.3,12.8-13.2,13.5c-6.8,0.8-37.1,0.6-47,0c-7-0.4-11.5-8.5-11.5-15.3C96.2,228.4,96.9,172.8,97.2,164.7z"/>
		<path class="st0" d="M170.8,181.3c0.3,4.1,0.3,6.2,0,9.7"/>
		<path class="st0" d="M171.1,200.2c0.2,3.9,0.1,6-0.1,9.7"/>
		<path class="st0" d="M95.7,205c-0.2-5.6-0.1-8.7,0.1-14.1"/>
		<path class="st0" d="M110.7,159.7h18.6c4.1,0,7.4,3.3,7.4,7.4v23.1c0,4.1-3.3,7.4-7.4,7.4h-18.6c-4.1,0-7.4-3.3-7.4-7.4v-23.1
			C103.3,163,106.7,159.7,110.7,159.7z"/>
		<ellipse class="st0" cx="114.7" cy="172" rx="6.5" ry="6.8"/>
		<ellipse class="st0" cx="121.8" cy="186.9" rx="4.1" ry="4.2"/>
		<path class="st0" d="M131.3,176.3c0,1.4-1.1,2.6-2.5,2.6c-1.4,0-2.5-1.1-2.5-2.6c0-1.4,1.1-2.6,2.5-2.6c1.1,0,2.1,0.4,2.5,2.1"/>
	</g>
	<g>
		<g>
			<path class="st0" d="M206.5-176.2c0.3-8.2,5.3-12.6,11.8-12.6h49c6.5,0,11.4,6,12.4,14.4c1,8.4,0,107.8,0,107.8
				c0,8.1-6.5,13-13.4,13.8c-7,0.8-37.8,0.6-47.9,0c-7.1-0.4-11.8-8.7-11.8-15.6C205.5-111.3,206.2-168,206.5-176.2z"/>
			<path class="st0" d="M281.5-159.4c0.3,4.2,0.3,6.3,0,9.8"/>
			<path class="st0" d="M281.8-140.1c0.2,3.9,0.1,6.1-0.2,9.9"/>
			<path class="st0" d="M204.9-135.2c-0.2-5.7-0.1-8.8,0.1-14.4"/>
			<path class="st0" d="M220.3-181.4h19c4.2,0,7.6,3.4,7.6,7.6v23.6c0,4.2-3.4,7.6-7.6,7.6h-19c-4.2,0-7.6-3.4-7.6-7.6v-23.6
				C212.7-178,216.1-181.4,220.3-181.4z"/>
			<ellipse class="st0" cx="224.3" cy="-168.9" rx="6.6" ry="7"/>
			<ellipse class="st0" cx="231.6" cy="-153.6" rx="4.2" ry="4.3"/>
			<path class="st0" d="M241.3-164.5c0,1.4-1.1,2.6-2.6,2.6c-1.4,0-2.6-1.2-2.6-2.6c0-1.4,1.1-2.6,2.6-2.6c1.1,0,2.1,0.4,2.6,2.2"/>
		</g>
		<path class="st1" d="M263.9-115.9l15.2,14.1"/>
		<path class="st1" d="M263.3-117l15.8,1.9"/>
		<path class="st1" d="M274.5-58.5l-49.9-67.4h-16.7h16.7l30.5-18.4l0.1-0.6l23.9-16.9"/>
		<path class="st1" d="M235.1-109.3L206.6-67"/>
	</g>
</g>
<g id="Layer_2">
</g>
<g id="Layer_3">
</g>
<g id="Layer_4">
</g>
</svg>
